<svg xmlns="http://www.w3.org/2000/svg" viewBox="0 0 1080 1080">
    <defs>
        <style>
            .a {
                fill: #fff;
            }
        </style>
    </defs>
    <circle class="a" cx="154.5" cy="154.5" r="154.5" />
    <circle class="a" cx="926" cy="155" r="154.5" />
    <circle class="a" cx="154.5" cy="925.5" r="154.5" />
    <circle class="a" cx="926" cy="926" r="154.5" />
    <path class="a"
        d="M972,428.18A279.08,279.08,0,0,1,864,425V545C700.7,571.41,571.83,700.56,545.81,864H420.14a278,278,0,0,1,9.12,108H651.81A280.13,280.13,0,0,1,648,926c0-153.54,124.46-278,278-278a280.13,280.13,0,0,1,46,3.81"
        transform="translate(0.5 0.5)" />
    <path class="a"
        d="M108,651.82A279.08,279.08,0,0,1,216,655V535c163.3-26.44,292.17-155.59,318.19-319H659.86a278,278,0,0,1-9.12-108H428.19A280.13,280.13,0,0,1,432,154c0,153.54-124.46,278-278,278a280.13,280.13,0,0,1-46-3.81V450"
        transform="translate(0.5 0.5)" />
</svg>